<mxfile host="app.diagrams.net" agent="Mozilla/5.0 (Windows NT 10.0; Win64; x64) AppleWebKit/537.36 (KHTML, like Gecko) Chrome/128.0.0.0 Safari/537.36" version="24.7.8">
  <diagram name="Page-1" id="c7488fd3-1785-93aa-aadb-54a6760d102a">
    <mxGraphModel dx="1147" dy="661" grid="1" gridSize="10" guides="1" tooltips="1" connect="1" arrows="1" fold="1" page="1" pageScale="1" pageWidth="1100" pageHeight="850" background="none" math="0" shadow="0">
      <root>
        <mxCell id="0" />
        <mxCell id="1" parent="0" />
        <mxCell id="2b4e8129b02d487f-1" value="Pool" style="swimlane;html=1;childLayout=stackLayout;horizontal=1;startSize=20;horizontalStack=0;rounded=0;shadow=0;labelBackgroundColor=none;strokeWidth=1;fontFamily=Verdana;fontSize=8;align=center;" parent="1" vertex="1">
          <mxGeometry x="170" y="80" width="880" height="560" as="geometry" />
        </mxCell>
        <mxCell id="2b4e8129b02d487f-2" value="Lane 1" style="swimlane;html=1;startSize=20;horizontal=0;" parent="2b4e8129b02d487f-1" vertex="1">
          <mxGeometry y="20" width="880" height="240" as="geometry">
            <mxRectangle y="20" width="680" height="30" as="alternateBounds" />
          </mxGeometry>
        </mxCell>
        <mxCell id="2b4e8129b02d487f-6" value="Shine Concierge" style="rounded=1;whiteSpace=wrap;html=1;shadow=0;labelBackgroundColor=none;strokeWidth=1;fontFamily=Verdana;fontSize=8;align=center;fillColor=#66B2FF;" parent="2b4e8129b02d487f-2" vertex="1">
          <mxGeometry x="70" y="49.99999999999997" width="70" height="37" as="geometry" />
        </mxCell>
        <mxCell id="45J83I2L-TXOmdsXCZDt-8" value="SVELTE PROJECTS" style="rounded=1;whiteSpace=wrap;html=1;shadow=0;labelBackgroundColor=none;strokeWidth=1;fontFamily=Verdana;fontSize=8;align=center;fillColor=#66B2FF;" vertex="1" parent="2b4e8129b02d487f-2">
          <mxGeometry x="70" y="-2.842170943040401e-14" width="70" height="37" as="geometry" />
        </mxCell>
        <mxCell id="45J83I2L-TXOmdsXCZDt-17" value="" style="edgeStyle=orthogonalEdgeStyle;rounded=0;orthogonalLoop=1;jettySize=auto;html=1;" edge="1" parent="2b4e8129b02d487f-2" source="45J83I2L-TXOmdsXCZDt-10" target="45J83I2L-TXOmdsXCZDt-9">
          <mxGeometry relative="1" as="geometry" />
        </mxCell>
        <mxCell id="45J83I2L-TXOmdsXCZDt-10" value="LATEPOINT ADD-ONS" style="rounded=1;whiteSpace=wrap;html=1;shadow=0;labelBackgroundColor=none;strokeWidth=1;fontFamily=Verdana;fontSize=8;align=center;fillColor=#10C70A;" vertex="1" parent="2b4e8129b02d487f-2">
          <mxGeometry x="370" y="-2.842170943040401e-14" width="70" height="37" as="geometry" />
        </mxCell>
        <mxCell id="45J83I2L-TXOmdsXCZDt-12" value="APP SCRIPTS" style="rounded=1;whiteSpace=wrap;html=1;shadow=0;labelBackgroundColor=none;strokeWidth=1;fontFamily=Verdana;fontSize=8;align=center;fillColor=#FFFF99;" vertex="1" parent="2b4e8129b02d487f-2">
          <mxGeometry x="570" y="-2.842170943040401e-14" width="70" height="37" as="geometry" />
        </mxCell>
        <mxCell id="45J83I2L-TXOmdsXCZDt-9" value="LP_Coupons&lt;br&gt;BETA&amp;nbsp;" style="rounded=1;whiteSpace=wrap;html=1;shadow=0;labelBackgroundColor=none;strokeWidth=1;fontFamily=Verdana;fontSize=8;align=center;fillColor=#10C70A;" vertex="1" parent="2b4e8129b02d487f-2">
          <mxGeometry x="370" y="109.99999999999997" width="70" height="37" as="geometry" />
        </mxCell>
        <mxCell id="2b4e8129b02d487f-12" value="Lisa Jane Yoga" style="rounded=1;whiteSpace=wrap;html=1;shadow=0;labelBackgroundColor=none;strokeWidth=1;fontFamily=Verdana;fontSize=8;align=center;fillColor=#66B2FF;" parent="2b4e8129b02d487f-2" vertex="1">
          <mxGeometry x="70" y="109.99999999999994" width="70" height="37" as="geometry" />
        </mxCell>
        <mxCell id="2b4e8129b02d487f-24" style="edgeStyle=orthogonalEdgeStyle;rounded=0;html=1;labelBackgroundColor=none;startArrow=none;startFill=0;startSize=5;endArrow=classicThin;endFill=1;endSize=5;jettySize=auto;orthogonalLoop=1;strokeWidth=1;fontFamily=Verdana;fontSize=8" parent="2b4e8129b02d487f-2" source="2b4e8129b02d487f-6" target="2b4e8129b02d487f-12" edge="1">
          <mxGeometry relative="1" as="geometry" />
        </mxCell>
        <mxCell id="45J83I2L-TXOmdsXCZDt-13" value="Wallace Contracting" style="rounded=1;whiteSpace=wrap;html=1;shadow=0;labelBackgroundColor=none;strokeWidth=1;fontFamily=Verdana;fontSize=8;align=center;fillColor=#66B2FF;" vertex="1" parent="2b4e8129b02d487f-2">
          <mxGeometry x="70" y="169.99999999999994" width="70" height="37" as="geometry" />
        </mxCell>
        <mxCell id="45J83I2L-TXOmdsXCZDt-14" value="" style="endArrow=classic;html=1;rounded=0;exitX=0.5;exitY=1;exitDx=0;exitDy=0;entryX=0.5;entryY=0;entryDx=0;entryDy=0;" edge="1" parent="2b4e8129b02d487f-2" source="2b4e8129b02d487f-12" target="45J83I2L-TXOmdsXCZDt-13">
          <mxGeometry width="50" height="50" relative="1" as="geometry">
            <mxPoint x="350" y="250" as="sourcePoint" />
            <mxPoint x="400" y="200" as="targetPoint" />
          </mxGeometry>
        </mxCell>
        <mxCell id="45J83I2L-TXOmdsXCZDt-11" value="Shiney invoice Generator&lt;br&gt;BETA" style="rounded=1;whiteSpace=wrap;html=1;shadow=0;labelBackgroundColor=none;strokeWidth=1;fontFamily=Verdana;fontSize=8;align=center;fillColor=#FFFF99;" vertex="1" parent="2b4e8129b02d487f-2">
          <mxGeometry x="570" y="169.99999999999997" width="70" height="37" as="geometry" />
        </mxCell>
        <mxCell id="45J83I2L-TXOmdsXCZDt-16" value="" style="edgeStyle=orthogonalEdgeStyle;rounded=0;orthogonalLoop=1;jettySize=auto;html=1;entryX=0.5;entryY=0;entryDx=0;entryDy=0;" edge="1" parent="2b4e8129b02d487f-2" source="45J83I2L-TXOmdsXCZDt-12" target="45J83I2L-TXOmdsXCZDt-11">
          <mxGeometry relative="1" as="geometry" />
        </mxCell>
        <mxCell id="2b4e8129b02d487f-3" value="Lane 2" style="swimlane;html=1;startSize=20;horizontal=0;" parent="2b4e8129b02d487f-1" vertex="1">
          <mxGeometry y="260" width="880" height="150" as="geometry" />
        </mxCell>
        <mxCell id="45J83I2L-TXOmdsXCZDt-24" value="" style="edgeStyle=orthogonalEdgeStyle;rounded=0;orthogonalLoop=1;jettySize=auto;html=1;" edge="1" parent="2b4e8129b02d487f-3" source="45J83I2L-TXOmdsXCZDt-20" target="45J83I2L-TXOmdsXCZDt-23">
          <mxGeometry relative="1" as="geometry" />
        </mxCell>
        <mxCell id="45J83I2L-TXOmdsXCZDt-20" value="WD Svelte Remake" style="rounded=1;whiteSpace=wrap;html=1;shadow=0;labelBackgroundColor=none;strokeWidth=1;fontFamily=Verdana;fontSize=8;align=center;fillColor=#66B2FF;" vertex="1" parent="2b4e8129b02d487f-3">
          <mxGeometry x="70" y="19.999999999999943" width="70" height="37" as="geometry" />
        </mxCell>
        <mxCell id="45J83I2L-TXOmdsXCZDt-26" value="" style="edgeStyle=orthogonalEdgeStyle;rounded=0;orthogonalLoop=1;jettySize=auto;html=1;" edge="1" parent="2b4e8129b02d487f-3" source="45J83I2L-TXOmdsXCZDt-23" target="45J83I2L-TXOmdsXCZDt-25">
          <mxGeometry relative="1" as="geometry" />
        </mxCell>
        <mxCell id="45J83I2L-TXOmdsXCZDt-23" value="WD&amp;nbsp;&lt;br&gt;Portfolio" style="rounded=1;whiteSpace=wrap;html=1;shadow=0;labelBackgroundColor=none;strokeWidth=1;fontFamily=Verdana;fontSize=8;align=center;fillColor=#66B2FF;" vertex="1" parent="2b4e8129b02d487f-3">
          <mxGeometry x="180" y="19.999999999999943" width="70" height="37" as="geometry" />
        </mxCell>
        <mxCell id="45J83I2L-TXOmdsXCZDt-25" value="WD&amp;nbsp;&lt;br&gt;Blog" style="rounded=1;whiteSpace=wrap;html=1;shadow=0;labelBackgroundColor=none;strokeWidth=1;fontFamily=Verdana;fontSize=8;align=center;fillColor=#66B2FF;" vertex="1" parent="2b4e8129b02d487f-3">
          <mxGeometry x="290" y="19.999999999999943" width="70" height="37" as="geometry" />
        </mxCell>
        <mxCell id="2b4e8129b02d487f-4" value="Lane 3" style="swimlane;html=1;startSize=20;horizontal=0;" parent="2b4e8129b02d487f-1" vertex="1">
          <mxGeometry y="410" width="880" height="150" as="geometry" />
        </mxCell>
        <mxCell id="45J83I2L-TXOmdsXCZDt-19" value="" style="edgeStyle=orthogonalEdgeStyle;rounded=0;orthogonalLoop=1;jettySize=auto;html=1;entryX=0.5;entryY=0;entryDx=0;entryDy=0;" edge="1" parent="2b4e8129b02d487f-1" source="45J83I2L-TXOmdsXCZDt-13" target="45J83I2L-TXOmdsXCZDt-20">
          <mxGeometry relative="1" as="geometry">
            <mxPoint x="180" y="250" as="targetPoint" />
          </mxGeometry>
        </mxCell>
      </root>
    </mxGraphModel>
  </diagram>
</mxfile>
